# xmcd
#
# Track frame offsets: 
#        150
#        16592
#        20207
#        31579
#
# Disc length: 655 seconds
#
# Revision: 1
# Processed by: cddbd v1.5.1PL0 Copyright (c) Steve Scherf et al.
# Submitted via: ExactAudioCopy v0.90b4
#
DISCID=1f028d04
DTITLE=Little Birdy - Excited
DYEAR=2005
DGENRE=Rock
TTITLE0=Excited
TTITLE1=Definition
TTITLE2=These Boots Are Made For Walkin'
TTITLE3=Beautiful to Me (Live at BDO 05)
EXTD=
EXTT0=
EXTT1=
EXTT2=
EXTT3=
PLAYORDER=
